<svg width="20" height="20" viewBox="0 0 20 20" fill="none" xmlns="http://www.w3.org/2000/svg">
<path d="M5.75 18.75L0.75 13.75V6.25L6.25 0.75H13.75L18.75 5.75V13.75L13.75 18.75H5.75Z" fill="#FF3737" fill-opacity="0.8" stroke="black"/>
<path d="M9.00001 10.5V5.25001C9.00001 5.0511 9.07903 4.86033 9.21968 4.71968C9.36033 4.57903 9.5511 4.50001 9.75001 4.50001C9.94892 4.50001 10.1397 4.57903 10.2803 4.71968C10.421 4.86033 10.5 5.0511 10.5 5.25001V10.5C10.5 10.6989 10.421 10.8897 10.2803 11.0303C10.1397 11.171 9.94892 11.25 9.75001 11.25C9.5511 11.25 9.36033 11.171 9.21968 11.0303C9.07903 10.8897 9.00001 10.6989 9.00001 10.5ZM19.5 6.33282V13.1672C19.5006 13.3642 19.4621 13.5595 19.3866 13.7415C19.3111 13.9235 19.2002 14.0887 19.0603 14.2275L14.2275 19.0603C14.0887 19.2002 13.9235 19.3111 13.7415 19.3866C13.5595 19.4621 13.3642 19.5006 13.1672 19.5H6.33282C6.13577 19.5006 5.94055 19.4621 5.75852 19.3866C5.5765 19.3111 5.41129 19.2002 5.27251 19.0603L0.439695 14.2275C0.299801 14.0887 0.188889 13.9235 0.113407 13.7415C0.0379247 13.5595 -0.000621974 13.3642 7.58898e-06 13.1672V6.33282C-0.000621974 6.13577 0.0379247 5.94055 0.113407 5.75852C0.188889 5.5765 0.299801 5.41129 0.439695 5.27251L5.27251 0.439695C5.41129 0.299801 5.5765 0.188889 5.75852 0.113407C5.94055 0.0379247 6.13577 -0.000621974 6.33282 7.58898e-06H13.1672C13.3642 -0.000621974 13.5595 0.0379247 13.7415 0.113407C13.9235 0.188889 14.0887 0.299801 14.2275 0.439695L19.0603 5.27251C19.2002 5.41129 19.3111 5.5765 19.3866 5.75852C19.4621 5.94055 19.5006 6.13577 19.5 6.33282ZM18 6.33282L13.1672 1.50001H6.33282L1.50001 6.33282V13.1672L6.33282 18H13.1672L18 13.1672V6.33282ZM9.75001 12.75C9.5275 12.75 9.31 12.816 9.12499 12.9396C8.93999 13.0632 8.79579 13.2389 8.71064 13.4445C8.62549 13.6501 8.60322 13.8763 8.64662 14.0945C8.69003 14.3127 8.79718 14.5132 8.95451 14.6705C9.11185 14.8278 9.3123 14.935 9.53053 14.9784C9.74876 15.0218 9.97496 14.9995 10.1805 14.9144C10.3861 14.8292 10.5618 14.685 10.6854 14.5C10.809 14.315 10.875 14.0975 10.875 13.875C10.875 13.5766 10.7565 13.2905 10.5455 13.0795C10.3345 12.8685 10.0484 12.75 9.75001 12.75Z" fill="#A90F0F"/>
</svg>
