<svg width="20" height="16" viewBox="0 0 20 16" fill="none" xmlns="http://www.w3.org/2000/svg">
<path d="M7.62048 15.0615L0.620483 8.06152L3.62048 5.56152L7.62048 9.06152L16.6205 0.561523L19.1205 3.56152L7.62048 15.0615Z" fill="#1AB142"/>
<path d="M19.5274 2.42581L17.4649 0.401123C17.2071 0.144243 16.8581 0 16.4942 0C16.1303 0 15.7813 0.144243 15.5235 0.401123L7.558 8.2687L4.40495 5.20933C4.14669 4.95328 3.7975 4.80997 3.43383 4.81078C3.07015 4.81158 2.72161 4.95643 2.46448 5.21362L0.40198 7.27612C0.144575 7.53392 0 7.88334 0 8.24765C0 8.61195 0.144575 8.96137 0.40198 9.21917L6.55682 15.4067C6.68451 15.5344 6.8361 15.6357 7.00295 15.7048C7.16979 15.7739 7.34861 15.8095 7.52921 15.8095C7.7098 15.8095 7.88863 15.7739 8.05547 15.7048C8.22231 15.6357 8.37391 15.5344 8.50159 15.4067L19.5317 4.37401C19.6596 4.24598 19.761 4.09395 19.8301 3.92664C19.8991 3.75932 19.9345 3.58002 19.9341 3.39902C19.9337 3.21802 19.8976 3.03887 19.8278 2.87187C19.758 2.70486 19.6559 2.55327 19.5274 2.42581ZM7.52534 14.4364L1.3705 8.24894L3.433 6.18644C3.4355 6.18851 3.4378 6.19081 3.43987 6.19331L7.07933 9.72448C7.2078 9.85019 7.3804 9.92059 7.56015 9.92059C7.73989 9.92059 7.91249 9.85019 8.04097 9.72448L16.5007 1.37394L18.558 3.40206L7.52534 14.4364Z" fill="#1F9219"/>
</svg>
