<?xml version="1.0" encoding="UTF-8" standalone="no"?>
<svg
   viewBox="0 0 64 64"
   width="64"
   height="64"
   version="1.1"
   id="svg1"
   sodipodi:docname="logo_white.svg"
   inkscape:export-filename="logo_white.svg"
   inkscape:export-xdpi="96"
   inkscape:export-ydpi="96"
   inkscape:version="1.4.2 (ebf0e940d0, 2025-05-08)"
   xmlns:inkscape="http://www.inkscape.org/namespaces/inkscape"
   xmlns:sodipodi="http://sodipodi.sourceforge.net/DTD/sodipodi-0.dtd"
   xmlns="http://www.w3.org/2000/svg"
   xmlns:svg="http://www.w3.org/2000/svg"
   xmlns:bx="https://boxy-svg.com">
  <sodipodi:namedview
     id="namedview1"
     pagecolor="#ffffff"
     bordercolor="#000000"
     borderopacity="0.25"
     inkscape:showpageshadow="2"
     inkscape:pageopacity="0.0"
     inkscape:pagecheckerboard="0"
     inkscape:deskcolor="#d1d1d1"
     inkscape:zoom="11.177944"
     inkscape:cx="39.229039"
     inkscape:cy="32.921976"
     inkscape:window-width="1366"
     inkscape:window-height="705"
     inkscape:window-x="0"
     inkscape:window-y="0"
     inkscape:window-maximized="1"
     inkscape:current-layer="g1">
    <inkscape:page
       x="0"
       y="0"
       width="64"
       height="64"
       id="page2"
       margin="0"
       bleed="0" />
  </sodipodi:namedview>
  <defs
     id="defs1">
    <bx:export>
      <bx:file
         format="svg"
         path="Sem título.svg" />
      <bx:file
         format="svg"
         href="#object-0"
         path="Sem título 2.svg" />
      <bx:file
         format="svg"
         href="#object-1"
         path="Sem título 3.svg" />
      <bx:file
         format="svg"
         href="#object-2"
         path="Sem título 4.svg" />
    </bx:export>
  </defs>
  <g
     transform="matrix(0.133065,0,0,0.133065,1.1030411,-1.7574956)"
     id="g1">
    <path
       d="m 272.153,154.23 c 1.607,1.347 3.193,2.72 4.75,4.125 2.886,2.431 2.886,2.431 6.492,2.75 2.429,-0.731 2.429,-0.731 4.907,-1.762 17.01,-6.641 36.131,-5.394 52.976,1.012 18.436,8.287 30.71,22.131 38.93,40.367 3.46,9.179 2.909,19.589 -1.055,28.508 -4.692,7.807 -11.105,13.574 -20,16 -9.544,0.933 -17.784,0.918 -25.559,-4.922 -6.498,-5.471 -10.049,-10.38 -12.441,-18.453 -0.764,-2.683 -0.764,-2.683 -2.75,-4 -3.937,-1.094 -6.986,-1.114 -10.816,0.367 -3.492,2.881 -3.73,6.188 -4.434,10.445 -3.943,20.032 -14.011,35.736 -30.836,47.555 -16.789,10.488 -37.235,14.014 -56.642,9.932 -19.416,-4.82 -35.637,-16.564 -46.209,-33.549 -9.782,-17.437 -12.525,-38.411 -7.217,-57.756 5.819,-19.016 18.268,-34.307 35.572,-44.014 24.155,-11.638 51.422,-10.547 74.332,3.395 z m -50,55 c -1.614,3.228 -1.596,6.51 -1,10 1.736,3.025 3.836,5.418 7,7 5.124,0.607 5.124,0.607 9.824,-1.047 3.804,-3.131 5.063,-4.82 5.551,-9.703 -0.024,-3.351 -0.619,-5.099 -2.75,-7.688 -3.53,-3.446 -5.553,-3.958 -10.519,-3.922 -3.722,0.636 -5.509,2.7 -8.106,5.36 z"
       style="fill:#ffffff;fill-opacity:1;stroke-width:1"
       id="object-0"
       sodipodi:nodetypes="ccccccccccccccccccccccccccc" />
    <path
       d="m 152.493,260.624 c 5.243,3.746 12.098,11.137 13.66,13.106 13.979,16.308 35.651,26.67 57,28.5 26.947,1.609 50.352,-6.83 71,-24 3.14,-2.824 5.99,-5.787 8.691,-9.031 6.191,-7.423 12.716,-12.121 22.583,-13.223 9.041,-0.442 16.713,2.215 23.664,8.004 5.274,5.048 8.759,11.105 9.3,18.508 0.319,16.622 -6.929,25.232 -18.056,36.894 -27.878,28.523 -65.657,44.117 -105.377,45.133 -42.122,0.458 -80.453,-15.533 -110.547,-44.729 -9.726,-9.649 -18.35,-18.466 -19.25,-32.791 -0.026,-9.207 3.509,-15.722 9.555,-22.523 10.299,-9.854 25.694,-11.049 37.777,-3.848 z"
       style="fill:#ffffff;fill-opacity:1;stroke-width:1"
       id="object-1" />
    <path
       d="m 125.091,186.792 c 8.444,4.548 14.732,11.104 17.671,20.356 1.6,8.528 0.72,16.541 -3.609,24.082 -4.985,6.976 -10.658,11.65 -19,14 -11.301,1.069 -19.338,-0.131 -28.25,-7.125 -5.645,-5.217 -9.158,-12.428 -9.988,-20.067 -0.287,-9.151 2.097,-16.672 7.988,-23.746 8.788,-9.182 23.256,-12.389 35.188,-7.5 z"
       style="fill:#ffffff;fill-opacity:1;stroke-width:1"
       id="object-2" />
  </g>
</svg>
